<svg id="SvgjsSvg1049" width="288" height="288" xmlns="http://www.w3.org/2000/svg" version="1.1" xmlns:xlink="http://www.w3.org/1999/xlink" xmlns:svgjs="http://svgjs.com/svgjs"><defs id="SvgjsDefs1050"></defs><g id="SvgjsG1051"><svg xmlns="http://www.w3.org/2000/svg" viewBox="0 0 47.5 47.5" width="288" height="288"><defs><clipPath id="a"><path d="M0 38h38V0H0v38Z"></path></clipPath></defs><g clip-path="url(#a)" transform="matrix(1.25 0 0 -1.25 0 47.5)"><path fill="#8200ff" d="M33 30H5a4 4 0 0 1-4-4V11a4 4 0 0 1 4-4h11.416c.52-.596 1.477-1 2.584-1s2.064.404 2.584 1H33a4 4 0 0 1 4 4v15a4 4 0 0 1-4 4" class="color269 svgShape"></path><path fill="#292f33" d="M21 10a2 2 0 0 0-4 0v18a2 2 0 0 0 4 0V10Z" class="color292f33 svgShape"></path><path fill="#99aab5" d="M19 11a2 2 0 0 0-2-2H5a2 2 0 0 0-2 2v18a2 2 0 0 0 2 2h12a2 2 0 0 0 2-2V11Z" class="color99aab5 svgShape"></path><path fill="#e1e8ed" d="M19 11c-.999 1.998-3.657 2-4 2-2 0-5-2-8-2-1 0-2 .896-2 2v16c0 1.104 1 2 2 2 3.255 0 6 2 8 2 3 0 4-1.896 4-3V11Z" class="colore1e8ed svgShape"></path><path fill="#99aab5" d="M35 11a2 2 0 0 0-2-2H21a2 2 0 0 0-2 2v18a2 2 0 0 0 2 2h12a2 2 0 0 0 2-2V11Z" class="color99aab5 svgShape"></path><path fill="#ccd6dd" d="M19 11c.999 1.998 3.657 2 4 2 2 0 5-2 8-2 1 0 2 .896 2 2v16c0 1.104-1 2-2 2-3.256 0-6 2-8 2-3 0-4-1.896-4-3V11Z" class="colorccd6dd svgShape"></path></g></svg></g></svg>