<svg id="SvgjsSvg1001" width="288" height="288" xmlns="http://www.w3.org/2000/svg" version="1.1" xmlns:xlink="http://www.w3.org/1999/xlink" xmlns:svgjs="http://svgjs.com/svgjs"><defs id="SvgjsDefs1002"></defs><g id="SvgjsG1008"><svg xmlns="http://www.w3.org/2000/svg" viewBox="0 0 47.5 47.5" width="288" height="288"><defs><clipPath id="a"><path d="M0 38h38V0H0v38Z"></path></clipPath><clipPath id="b"><path d="M1.963 36.248h34.074V9.641H1.963v26.607z"></path></clipPath></defs><g clip-path="url(#a)" transform="matrix(1.25 0 0 -1.25 0 47.5)"><path fill="#292f33" d="M25 23H13s-5-6-5-10S19 2 19 2s11 7 11 11-5 10-5 10" class="color292f33 svgShape"></path><path fill="#292f33" d="M20.64 35.72c-.901.704-2.377.704-3.278 0L2.64 24.223c-.902-.703-.902-1.856 0-2.559l14.721-11.495c.902-.704 2.377-.704 3.278 0l14.723 11.495c.901.703.901 1.856 0 2.559L20.64 35.72Z" class="color292f33 svgShape"></path><g clip-path="url(#b)" opacity=".25"><path fill="#67757f" d="M20.64 35.72c-.901.704-2.377.704-3.278 0L2.64 24.223c-.902-.703-.902-1.856 0-2.559l14.721-11.495c.902-.704 2.377-.704 3.278 0l14.723 11.495c.901.703.901 1.856 0 2.559L20.64 35.72Z" class="color67757f svgShape"></path></g><path fill="#fcab40" d="M9 12s-2-2-2-3V3s0-2 2-2 2 2 2 2v6c0 1-2 3-2 3" class="colorfcab40 svgShape"></path><path fill="#fdd888" d="M12 11a3 3 0 1 0-6 0 3 3 0 1 0 6 0" class="colorfdd888 svgShape"></path><path fill="#fcab40" d="M9.002 10a1 1 0 0 0-1 1v3.958c-.042.634.187 2.036 1.317 2.884l9.022 7.91a1 1 0 1 0 1.319-1.504l-9.082-7.958c-.603-.456-.577-1.272-.577-1.28l.001-4.01a1 1 0 0 0-1-1" class="colorfcab40 svgShape"></path><path fill="#292f33" d="M22 24a3 3 0 1 0-6 0 3 3 0 0 0 6 0" class="color292f33 svgShape"></path></g></svg></g></svg>