<svg id="SvgjsSvg1030" width="288" height="288" xmlns="http://www.w3.org/2000/svg" version="1.1" xmlns:xlink="http://www.w3.org/1999/xlink" xmlns:svgjs="http://svgjs.com/svgjs"><defs id="SvgjsDefs1031"></defs><g id="SvgjsG1032"><svg xmlns="http://www.w3.org/2000/svg" viewBox="0 0 32 32" width="288" height="288"><circle cx="16" cy="16" r="14" fill="#8200ff" class="colorfce87b svgShape"></circle><path fill="#f1ecf0" d="M27.33 16A11.33 11.33 0 1 1 16 4.67 11.33 11.33 0 0 1 27.33 16Z" class="colorf1ecf0 svgShape"></path><path fill="#8b8b8b" d="M11 5.83 11.66 7a.75.75 0 1 1-1.3.75L9.7 6.58a12.6 12.6 0 0 1 1.3-.75Zm10 0a12.6 12.6 0 0 1 1.3.75l-.66 1.15a.75.75 0 1 1-1.3-.73ZM15.25 4.7h1.5v3.6a.75.75 0 0 1-1.5 0Zm-8.67 5 1.15.66a.75.75 0 1 1-.73 1.3L5.83 11a11.87 11.87 0 0 1 .75-1.3Zm18.84 0a13.75 13.75 0 0 1 .75 1.3l-1.17.66a.75.75 0 1 1-.75-1.3ZM4.69 15.25H8.3a.75.75 0 0 1 0 1.5H4.69V16c0-.25-.01-.5 0-.75Zm22.62 0v1.5H23.7a.75.75 0 0 1 0-1.5Zm-1.89 7.05-1.15-.66a.75.75 0 1 1 .75-1.3l1.15.66a11.87 11.87 0 0 1-.75 1.3ZM5.83 21 7 20.34a.75.75 0 1 1 .75 1.3l-1.15.66a11 11 0 0 1-.77-1.3Zm3.87 4.42.66-1.15a.75.75 0 1 1 1.3.75L11 26.17a11 11 0 0 1-1.3-.75Zm11.3.75L20.34 25a.75.75 0 1 1 1.3-.75l.66 1.15a11 11 0 0 1-1.3.77Zm-5.75 1.14V23.7a.75.75 0 0 1 1.5 0v3.61H16Z" class="colordfdedb svgShape"></path><path fill="#373434" fill-rule="evenodd" d="M15.25 13.2v-2.74a.75.75 0 0 1 1.5 0V16a.74.74 0 0 1-.56.72.75.75 0 0 1-.84-.34l-2.83-4.9a.76.76 0 0 1 .28-1 .75.75 0 0 1 1 .28Z" class="colorb9aeb9 svgShape"></path></svg></g></svg>