<svg xmlns="http://www.w3.org/2000/svg" viewBox="0 0 512 512" id="Kapalbhati">
  <path fill="#8526fe" d="M223.39142,499.98143a2.581,2.581,0,0,1-3.02936,1.2158,6.74274,6.74274,0,0,0-1.38875-.21575c-7.04335-.24337-14.09184-.85233-21.13364-.41686-7.67587.47456-15.34872.40687-23.01869.23843-5.24223-.11517-10.49069-.24951-15.7262-.51079a57.99975,57.99975,0,0,1-7.7089-.67441,50.28706,50.28706,0,0,0-5.37485-.44385c-3.28154-.24755-6.53918-.6709-9.78257-1.14759a71.194,71.194,0,0,1-17.477-4.36187c-3.029-1.27442-6.08692-2.47666-9.06137-3.87962a54.42428,54.42428,0,0,1-10.47054-6.68238,39.43249,39.43249,0,0,1-5.75618-5.50625,27.42929,27.42929,0,0,1-4.446-7.68133,30.04519,30.04519,0,0,1-2.241-9.55426,23.82741,23.82741,0,0,1,2.74454-11.98809A33.01917,33.01917,0,0,1,98.4056,437.87c1.25916-1.05028,2.511-2.10923,3.76626-3.16419.98076-1.65146,2.70757-2.30661,4.27876-3.13634a154.33192,154.33192,0,0,1,25.55936-10.614c1.34351-.42542,2.6732-.89341,4.001-1.36673,11.27995-3.516,22.517-7.14638,33.49855-11.53931,12.35812-4.94362,21.02-13.38028,25.877-25.91045,3.85063-9.93377,6.80943-20.16324,10.5585-30.12228,1.51683-4.02937,2.924-8.0946,4.07206-12.24721.20364-.73659.30316-1.56474,1.12618-1.9659a5.26861,5.26861,0,0,1,3.66082.423c9.39112,3.47585,19.27713,3.96924,29.09663,4.904,10.46451.99614,20.955.852,31.44626.9584,13.75217.13942,27.18343-1.53739,40.15693-6.26661,1.53833-.07486,1.68134,1.138,1.96156,2.17841,1.97443,7.33018,3.74984,14.71466,5.94674,21.98395,2.717,8.99023,5.11367,18.07477,7.97666,27.02188a25.5408,25.5408,0,0,0,3.03165,6.33205,3.11069,3.11069,0,0,0,3.16284,1.52969c9.18289-.874,18.39346-1.42308,27.55023-2.61456a127.82892,127.82892,0,0,1,30.417-.71885c.626.06815,1.22645.24624,1.84207.3455a62.83408,62.83408,0,0,1,29.163,10.09571,4.17176,4.17176,0,0,1,1.922,1.98312,5.47282,5.47282,0,0,0,.60566.70906,13.434,13.434,0,0,1,4.53537,8.00054,37.467,37.467,0,0,1,1.11162,7.8701,34.2058,34.2058,0,0,1-1.31489,8.07069,49.26889,49.26889,0,0,1-6.54252,14.22225c-1.55866,2.4348-3.29936,4.75347-4.97052,7.11565a28.226,28.226,0,0,1-7.4427,7.07651,71.19826,71.19826,0,0,1-15.256,8.20211c-.13676.04977-.23921.19364-.35765.2936a4.46,4.46,0,0,1-2.64622,1.39216,141.57694,141.57694,0,0,1-30.01549,5.05431c-7.43573.48811-14.87625-.06327-22.27667.46859-8.37293.60161-16.73424.2463-25.09911.36221-3.90606.05414-7.79334-.61109-11.711-.52675a5.72784,5.72784,0,0,1-2.27781-.512,3.88924,3.88924,0,0,1-.75243-.39935c-.11224-.08187-.22236-.17086-.33563-.25307-.80235-.75186-1.58633-1.5253-2.31359-2.356a24.93175,24.93175,0,0,1-4.71736-14.50844c-.32512-10.24963.69425-20.45251,1.42922-30.66163a3.02817,3.02817,0,0,1,.4094-1.33363,74.25511,74.25511,0,0,1,19.589-6.98545,189.53951,189.53951,0,0,1,31.78281-4.331c8.92156-.4208,17.81785.16,24.59562.18122-11.46987-.40349-25.069-.93558-38.61451,1.017-8.59326,1.2387-17.19239,2.47743-25.48366,5.17016a59.57623,59.57623,0,0,0-12.07185,5.02455c-.75246,1.13352-2.04416,1.40938-3.16749,1.90619-7.74592,3.42535-15.77915,6.10953-23.69843,9.08567-6.16188,2.31574-11.9065,5.61573-18.23574,7.53579a68.342,68.342,0,0,1-17.98619,3.20171c-1.95654.05454-3.87821.54839-5.848.5012a1.49607,1.49607,0,0,0-1.54431,1.19576,1.34641,1.34641,0,0,1-.66089.38213,19.89823,19.89823,0,0,1-6.48967-1.92368c-7.44692-3.1819-15.30944-4.40878-23.2609-5.228-7.3068-.75284-14.58584-1.75357-21.92605-2.22136a78.78989,78.78989,0,0,0-24.16786,1.96048,82.31342,82.31342,0,0,1,26.499-1.75081c7.64.61877,15.2268,1.66481,22.84518,2.44491a69.27254,69.27254,0,0,1,19.77377,4.76582c2.52411,1.052,5.21445,1.6721,7.77017,2.67146a2.52529,2.52529,0,0,1,.96442,1.35381,70.31464,70.31464,0,0,1-.21727,22.39111c-1.37833,8.24649-3.20139,16.415-4.40849,24.69376C224.43415,498.27517,224.35512,499.3355,223.39142,499.98143Z" class="color8399e8 svgShape"></path>
  <path fill="#5fe4d4" d="M204.2461,160.972a5.63737,5.63737,0,0,1,2.57157-1.492q5.3165-1.58673,10.63152-3.17837a1.48141,1.48141,0,0,1,.45857.01386c.83737.29323.88384.98427.89314,1.71922a117.01679,117.01679,0,0,0,3.89042,28.76037,48.95287,48.95287,0,0,0,5.52508,13.66187,33.03827,33.03827,0,0,0,17.06243,13.72039,41.77868,41.77868,0,0,0,17.713,2.93225c5.65346-.43515,9.99087-3.375,13.58926-7.55385A51.72238,51.72238,0,0,0,288.10876,186.221c2.0906-9.79638,4.69678-19.48742,5.92714-29.45932a5.25754,5.25754,0,0,1,1.43591-3.63027,3.18089,3.18089,0,0,1,2.50625.14c3.63436,1.23143,7.353,2.16067,11.066,3.11008,1.08927.2785,2.15663.56237,2.35194,1.92712-1.90755,7.12987-.97008,14.28955-.33112,21.46717.555,6.23519.84834,12.4939,1.52912,18.71975,1.01311,9.26479,1.91492,18.54483,3.6684,27.709.68552,4.483,1.36114,8.97076,4.19033,12.75375,1.8582,2.18958,2.34789,4.73783,2.57567,7.5749.824,10.26262-.94947,20.17159-3.14091,30.12692-1.74493,7.92691-3.26963,15.911-4.95424,23.857-.33927,1.60013-.55394,3.27332-2.11741,4.27575a47.50893,47.50893,0,0,1-14.17535,2.99988,345.25265,345.25265,0,0,1-42.39087,1.43077c-11.08232-.41422-22.17551-.55892-33.25036-1.24863-3.50716-.21842-7.01964-.40917-10.52451-.67349a6.43192,6.43192,0,0,1-3.97133-1.19105c-4.13742-18.51965-10.11884-36.631-12.4309-55.56311a28.57456,28.57456,0,0,0-.77112-3.67922,17.02265,17.02265,0,0,1-.10119-8.83028,105.49173,105.49173,0,0,0,2.75916-12.20783c1.10737-6.311,2.36947-12.58932,2.92561-18.99033.58812-6.76921.988-13.55445,1.14487-20.33423.16454-7.11013,1.21135-14.16111,1.12957-21.28035A6.85391,6.85391,0,0,1,204.2461,160.972Z" class="colore499a2 svgShape"></path>
  <path fill="#f6cf93" d="M204.2461 160.972a11.54563 11.54563 0 0 1-.3796 3.71171 5.00108 5.00108 0 0 0-.09527 1.63c-.01281 1.72133-.00773 3.44279-.01774 5.16415a5.3242 5.3242 0 0 1-.22638 2.08479 4.88 4.88 0 0 0-.2307 1.8499 31.95236 31.95236 0 0 1-.379 5.1205 34.05 34.05 0 0 0-.10351 5.1524 27.61457 27.61457 0 0 1-.36192 5.5927 21.7529 21.7529 0 0 0-.10423 4.21107 18.02987 18.02987 0 0 1-.38627 5.11921 7.24816 7.24816 0 0 0-.07437 1.86761c-.05078 1.55467.16514 3.12946-.40039 4.64575a2.83909 2.83909 0 0 0-.0672.93135 59.17131 59.17131 0 0 1-1.26546 9.46306c-.50573 2.90871-1.05108 5.81047-1.579 8.71531-3.65251 2.33035-6.0492 7.94726-5.14757 12.08353 1.188 4.06382.41936 8.26575.90954 12.39436 1.02431 8.62741 2.0263 17.30069 1.53511 25.99462-.50312 8.90536-.541 17.8268-1.23175 26.72755-.44208 5.69614-.66561 11.40663-1.59019 17.05325-1.25448 7.66135-5.06354 14.30647-8.66859 20.98026-6.96572 12.89513-14.42221 25.52054-22.22626 37.92067-7.13628 11.33909-14.55018 22.5082-22.006 33.64279-1.53183 2.28761-2.17957 5.05175-4.11172 7.07949a45.83928 45.83928 0 0 1-6.16167 2.17029 150.85454 150.85454 0 0 0-23.45173 9.98125c-1.44235.76784-2.83588 1.62735-4.25211 2.4454a39.70466 39.70466 0 0 1-5.37219-2.87464 43.97872 43.97872 0 0 1-5.71019-3.68821 13.2067 13.2067 0 0 1-5.39441-10.68393 16.91707 16.91707 0 0 1 2.18389-9.23072c.673-1.1393 1.53519-2.16592 2.29542-3.25487.40226-.57615.77492-1.17323 1.15325-1.76571a2.69128 2.69128 0 0 0-.19461-3.27849c-.22982-.31646-.485-.61453-.72891-.92068a4.49977 4.49977 0 0 1-.7518-4.21725 13.91546 13.91546 0 0 1 2.69665-4.905 2.43352 2.43352 0 0 1 1.81336-.96c1.98291 1.673 2.69528 4.16441 3.94443 6.292 2.68777 4.57811 5.36425 9.16145 8.18536 13.65873a29.28711 29.28711 0 0 0 5.43 6.41633c2.67831 2.36632 4.96247 2.139 7.17424-.69229 1.48932-1.90649 2.86753-3.89868 4.49515-5.69824a4.58 4.58 0 0 0 .87357-4.80339 16.8626 16.8626 0 0 0-4.201-6.66048c3.412-7.04447 6.20994-14.37608 9.94053-21.27145 1.93743-3.581 3.91115-7.14255 5.82128-10.738a153.42908 153.42908 0 0 0 8.33638-19.40335c1.26356-3.45325 2.65367-6.86 3.93924-10.30539 2.16153-5.793 4.14252-11.64893 5.8495-17.59249 1.51044-5.25929 3.00661-10.52223 4.34582-15.83047.76692-3.0399 1.16878-6.1343 1.716-9.2071.46523-2.61226.82874-5.24258 1.28178-7.85718.22723-1.31133.187-2.63859.44384-3.96008a46.79506 46.79506 0 0 0 .60372-5.82488c.74232-11.1874.50963-22.39249.57363-33.59212.004-.70539-.01236-1.41086-.01391-2.1163a44.91194 44.91194 0 0 0-1.62079-10.63028 38.63127 38.63127 0 0 1-.76077-5.31645c-.32312-3.18515-.55231-6.37976-.84031-9.56838a76.88538 76.88538 0 0 1-.56766-11.9479c.52283-7.9977 2.70292-15.44954 7.88131-21.68757a37.2134 37.2134 0 0 1 15.06474-11.30831c3.35112-1.31146 6.64068-2.77945 9.98179-4.11743C196.03739 163.56252 200.1375 162.25254 204.2461 160.972zM315.70257 226.71636c-.62223-2.72838-1.01458-5.49649-1.49057-8.25007-.34539-1.9978-.41385-4.01715-.71644-6.01451a46.55667 46.55667 0 0 1-.66281-5.55818 29.10327 29.10327 0 0 0-.57365-4.1521 21.842 21.842 0 0 1-.32759-3.47883 6.12322 6.12322 0 0 0-.27138-2.31416 1.56708 1.56708 0 0 1-.15254-.681c.20613-2.66718-.53315-5.27078-.518-7.92508a9.02194 9.02194 0 0 0-.35857-3.47654 3.51885 3.51885 0 0 1-.09679-1.16216 19.52369 19.52369 0 0 0-.42332-5.351 7.04739 7.04739 0 0 1-.05721-1.86932 8.17146 8.17146 0 0 0-.05041-1.6388c-.8492-3.71557-.35179-7.47873-.36143-11.21536a10.03157 10.03157 0 0 1 1.03024-4.51794 6.84359 6.84359 0 0 0 .34533-1.1095c.76208-.53726 1.51181-.15846 2.23442.07351 7.80327 2.50512 15.4513 5.45736 23.2147 8.07822a5.60417 5.60417 0 0 1 2.20887 1.28432 7.40924 7.40924 0 0 0 2.61551 1.527c5.07334 2.31773 8.00992 6.29706 9.3375 11.64181a69.68859 69.68859 0 0 1 1.30438 7.60864c.24825 1.85565.52276 3.70791.799 5.55968.219 1.46836.18111 2.95173.45972 4.43.37447 1.98688.407 4.03681.6168 6.0565.25792 2.48356.56315 4.96223.81814 7.446.21535 2.09817.38161 4.20132.58143 6.30113.25884 2.71954.533 5.43765.79187 8.15719.05188.54483.084 1.09305.0927 1.64026.08439 5.31809.45788 10.61838.9108 15.916.13316 1.55783.08686 3.13227.09527 4.69925.02431 4.53753.41632 9.04962.84546 13.5628.17738 1.8652.28775 3.7348.48685 5.60167q.34809 3.26407.86149 6.49676c.23452 1.46347.41419 2.95039.52189 4.41748.39628 5.39883 1.62439 10.64389 2.65837 15.92885a72.10316 72.10316 0 0 0 2.20634 8.37227 22.99379 22.99379 0 0 0 3.88327 7.18057 71.44338 71.44338 0 0 1 5.20429 6.943c.72987 1.20408 1.44079 2.41991 2.14583 3.63878 3.37033 5.82655 6.98715 11.50115 10.54469 17.21325 2.27434 3.65181 4.336 7.43544 6.55664 11.12161 1.81635 3.015 3.40219 6.17145 5.478 9.0282 1.885 2.59413 3.77028 5.18817 5.67845 7.76521a86.01272 86.01272 0 0 1 4.94274 7.4214 44.47914 44.47914 0 0 0 3.62548 4.89942 11.905 11.905 0 0 0 1.7652 1.519 29.93005 29.93005 0 0 0 4.11661 7.07639c3.03444 3.80074 6.6626 3.55858 8.91068-.71066 3.06016-5.81148 3.99762-12.135 4.28635-18.59721a55.2058 55.2058 0 0 1 4.49351-8.73842 4.48558 4.48558 0 0 1 .94117-1.0369 2.08556 2.08556 0 0 1 2.95944.05506 9.20216 9.20216 0 0 1 2.44146 4.473 38.5265 38.5265 0 0 1 1.47995 8.51181c.04685 1.00763.28442 2.00526.40986 3.01053q.43377 3.47879.83677 6.96128a6.304 6.304 0 0 1 .05086 1.63708c-.3161 2.0784-.31162 4.19145-.81547 6.25467a10.08192 10.08192 0 0 1-2.16951 4.35214 62.40972 62.40972 0 0 0-5.97047 8.09808 10.09088 10.09088 0 0 1-6.61874 4.8044c-.4576.09883-.91812.18417-1.37778.27606a3.70442 3.70442 0 0 1-.83241-.41061c-3.13631-2.685-6.84175-4.37637-10.56214-6.02568a64.1856 64.1856 0 0 0-14.33213-4.30664c-1.76433-.32882-3.55177-.53358-5.32868-.795-4.65917-2.37553-8.4575-5.9176-12.32658-9.31663q-15.71451-13.80531-30.2789-28.832A164.75724 164.75724 0 0 1 331.202 325.32948a33.85391 33.85391 0 0 1-4.36687-14.9836c-.78412-10.52775-1.4118-21.07428-2.49472-31.57025-1.01718-9.85876-.6786-19.71113-.78854-29.57056a5.18263 5.18263 0 0 1 .27414-1.85145 64.99727 64.99727 0 0 0 3.45575-14.50411c.20906-1.91713.71041-3.82565.085-5.79212-.80307-2.52509-2.22652-3.38526-4.79151-2.63363a23.379 23.379 0 0 0-4.28049 1.868C317.5008 226.7099 316.69463 227.374 315.70257 226.71636zM304.46748 473.13567a26.88936 26.88936 0 0 0 5.12616.503c2.891.08376 5.77809.37042 8.66846.39769 6.34385.05994 12.69608.20157 19.03141-.04128 8.13927-.312 16.27857-.2967 24.41761-.43368 3.24311-.60288 6.5458-.39281 9.81772-.71793 4.597-.45671 9.13777-1.16424 13.66829-2.0129a106.36637 106.36637 0 0 0 11.37671-2.78892 6.00955 6.00955 0 0 1 2.27317-.52192c1.2989.62193 2.75115.51222 4.11992.83832a8.37384 8.37384 0 0 1 5.13445 3.455 21.71856 21.71856 0 0 1 3.66559 9.52756c.37452 2.6276-.13314 5.1375-.17878 7.69718a3.575 3.575 0 0 1-2.73466 3.442 14.42232 14.42232 0 0 1-5.52532.58141 6.60818 6.60818 0 0 0-.6972-.08888c-3.29236.07337-6.543-.53708-9.83758-.54667-3.35858-.00976-6.71536-.30755-10.075-.414a70.29922 70.29922 0 0 0-11.20891.7971c-1.93527.24928-3.88608.3757-5.82626.59019-2.24854.24859-4.493.53335-6.73947.80088a5.39614 5.39614 0 0 1-.70134.0647c-3.91581-.05069-7.79328.67246-11.71762.53892-2.4256-.08255-4.85739-.00976-7.28591.026-4.77151.07021-9.52811.58806-14.30575.48713-2.86617.56826-5.79489.155-8.65822.50063-2.71767.32805-5.47421.14766-8.16209.7328a1.869 1.869 0 0 1-.46638.05121 79.4818 79.4818 0 0 0-9.12261.62848c-3.28145.24273-6.5741.18532-9.83646.49006-2.42037.22609-4.8559.15949-7.24957.45389-3.59357.442-7.20841.12573-10.77792.48226-5.00651.49993-10.024.09708-15.01188.46273-3.98784.29245-7.99072.11241-11.9514.48742-3.44324.326-6.88642.15421-10.31011.44362-2.578.21787-5.1476.34894-7.72918.32076a3.3952 3.3952 0 0 1-2.265-.38948c1.025-6.08237 2.0215-12.16848 3.23136-18.22117.70346-3.51936 1.29651-7.06542 1.94345-10.59868a46.83564 46.83564 0 0 0 .56424-6.30088c.11014-2.4243.11037-4.85492.10733-7.28267a22.57011 22.57011 0 0 0-.46741-5.83544 7.97931 7.97931 0 0 1-.09559-1.63645c1.07763-.83068 2.13311-.21851 3.11318.1522 11.65444 4.4078 23.52093 8.21215 35.247 12.41574q9.84711 3.53 19.61769 7.26108a37.09306 37.09306 0 0 0 15.41674 2.55905 4.244 4.244 0 0 1 1.85335.20392l.01269.00569A3.25412 3.25412 0 0 0 304.46748 473.13567zM295.4704 153.52607a66.80451 66.80451 0 0 0-1.50509 8.02089c-.63485 3.83438-1.24034 7.68046-2.20887 11.4646-1.236 4.829-2.18332 9.73105-3.34291 14.58061a49.02527 49.02527 0 0 1-4.79016 12.932 57.00309 57.00309 0 0 1-5.37466 7.95165 40.00058 40.00058 0 0 1-2.92444 3.35106 20.36387 20.36387 0 0 1-10.099 5.62332 11.996 11.996 0 0 1-2.54182.32569c-.15676.00014-.31421-.00875-.47017.00258-4.34775.31628-8.52651-.64231-12.7245-1.58592-4.26772-.95926-8.03915-3.034-11.83739-5.041a20.5291 20.5291 0 0 1-3.32873-2.56695c-.59983-.4997-1.11139-1.10418-1.67506-1.6487a35.50881 35.50881 0 0 1-8.7918-14.22619 97.79153 97.79153 0 0 1-3.48082-12.86931c-.49017-2.438-.57468-4.964-1.15144-7.37631-.53294-2.22889-.14659-4.52414-.80214-6.72906a10.44825 10.44825 0 0 1-.08365-2.57448 8.07527 8.07527 0 0 0-.3149-3.0155 2.33175 2.33175 0 0 1 .16118-1.82373 2.05141 2.05141 0 0 0-.27664-2.00671 24.42262 24.42262 0 0 0 10.71976-6.0294 11.373 11.373 0 0 0 3.85172-8.74949c-.01358-5.40231-.00594-10.80548-.10948-16.20632-.03732-1.94409-.51346-3.87328-.34952-5.83753.48986-.09123.69666.2363.86255.6 2.6362 5.78046 7.26561 9.91572 11.783 14.11107a43.97842 43.97842 0 0 0 8.07687 6.386c4.35817 2.46227 8.88209 4.06321 14.06933 3.298a14.56633 14.56633 0 0 0 7.73074-4.08163 90.79783 90.79783 0 0 0 6.64689-7.25794c.96844-1.08091 1.76-1.23088 2.50936.16925 1.429 3.74217 1.84921 7.71266 2.39456 11.62262.49027 3.51546 2.39683 5.56574 5.43928 6.96508C292.89528 151.93114 294.61942 151.97656 295.4704 153.52607z" class="colorf6c193 svgShape"></path>
  <path fill="#8c7046" d="M295.4704,153.52607c-1.29853-.517-2.60345-1.01859-3.89282-1.55744-.64312-.26878-1.2613-.59867-1.88461-.91311a7.48655,7.48655,0,0,1-4.13272-6.07683c-.518-3.52871-1.216-7.03129-1.85828-10.54115-.11127-.608-.33055-1.19624-.5-1.7936-.42608-1.232-1.4831-2.39491-.42057-3.79177a33.27007,33.27007,0,0,0,4.88685-7.69786,6.7652,6.7652,0,0,1,1.50658-2.354c1.71829-1.06354,3.648-1.7483,5.29659-2.945a6.96188,6.96188,0,0,0,2.1429-2.11149,1.85922,1.85922,0,0,0-.39878-2.52786c-.75651-.64962-1.45443-.20554-2.0778.32583a9.975,9.975,0,0,1-2.03276,1.55613c-.50513.24344-1.07686.81584-1.59169-.02786.455-5.21285.98865-10.40789,1.19633-15.64971a160.73544,160.73544,0,0,0-.04484-16.62712A123.59021,123.59021,0,0,0,286.79442,54.533a52.71424,52.71424,0,0,0-5.41792-13.21091c-1.95442-3.19471-4.308-4.20172-8.21423-3.13556-4.65225,1.26977-8.32921,4.26609-11.52136,7.77717a42.6416,42.6416,0,0,0-5.87124,8.4784,16.68375,16.68375,0,0,1-2.94322,3.9333c-1.4488,1.4383-3.06911,2.12831-5.103,1.42514a3.43148,3.43148,0,0,0-4.25647,1.54606,30.75594,30.75594,0,0,0-2.13325,3.64479c-2.07393,3.97568-5.04355,7.10372-9.38777,8.37129-5.16052,1.50576-9.60923,9.16407-8.56655,15.13346,1.68117,9.62527,4.04671,18.97458,8.37882,27.76774a4.23485,4.23485,0,0,1,.38241,1.10738.68336.68336,0,0,1-.57084.82419c-3.07115.55663-5.267-.91851-7.15154-3.09532a19.28434,19.28434,0,0,1-2.34215-3.51179c-.70621-1.30915-1.37815-2.6372-2.103-3.93584a20.48262,20.48262,0,0,0-4.75623-6.07232c-2.95765-2.41546-4.113-5.63523-4.36753-9.27715-.16924-2.42173-.26234-4.85056-.32006-7.27787a71.85338,71.85338,0,0,0-.67235-9.83466,45.37867,45.37867,0,0,1-.06189-13.1091,75.81245,75.81245,0,0,1,2.58279-12.39623,46.06976,46.06976,0,0,1,17.37151-24.44925,50.73235,50.73235,0,0,1,15.57348-8.01348,34.19254,34.19254,0,0,1,12.78693-1.11877,12.211,12.211,0,0,1,6.53159,2.39986,15.60309,15.60309,0,0,0,8.16,3.19734,12.57761,12.57761,0,0,1,7.55086,3.98172c5.06025,5.07887,9.54677,10.5975,12.49073,17.20824a225.59412,225.59412,0,0,1,8.50236,21.11675,43.66913,43.66913,0,0,1,2.21872,17.12334q-.36492,4.80191-.75137,9.60213c-.204,2.49642-.47827,4.98788-.63922,7.48685a13.407,13.407,0,0,1-3.53526,8.01564c-.65759.764-1.34857,1.49936-2.00357,2.22488.10429.20908.13842.387.246.47674a5.07571,5.07571,0,0,1,1.87246,4.57629c-.07716.97658.04481,1.06492.97108,1.18536.31037.04034.62481.04872.93687.07719a5.537,5.537,0,0,1,4.85888,3.53071,16.02974,16.02974,0,0,1,1.20638,5.94516,53.61193,53.61193,0,0,1-.69218,9.82926c-.3254,2.24669-.74531,4.48178-.99838,6.736a23.37262,23.37262,0,0,0-.08531,4.21992,6.68643,6.68643,0,0,0,4.82966,6.283,28.13792,28.13792,0,0,0,4.80026,1.08894c2.85865.45427,5.73277.83674,8.567,1.41318a25.8445,25.8445,0,0,1,10.96648,5.10772,9.23447,9.23447,0,0,1,3.08554,4.0578,26.595,26.595,0,0,1,1.476,4.44959,5.05681,5.05681,0,0,1-1.14688-.13572c-3.89489-1.39274-7.77807-2.8183-11.67026-4.21861-4.92071-1.77036-9.83732-3.55359-14.84111-5.08109a1.62613,1.62613,0,0,0-1.29916-.8742,93.98911,93.98911,0,0,1-11.7335-3.22615A4.06052,4.06052,0,0,0,295.4704,153.52607Z" class="color8c4646 svgShape"></path>
  <path fill="#d8a353" d="M120.06435 397.4382a3.74491 3.74491 0 0 1 2.63368 2.1384 20.92432 20.92432 0 0 1 2.15242 4.39023 4.95906 4.95906 0 0 1-1.04155 5.406 60.772 60.772 0 0 0-4.88624 6.25863 6.14776 6.14776 0 0 1-3.14186 1.93613 2.04883 2.04883 0 0 1-1.14409-.067 7.83783 7.83783 0 0 1-3.63025-2.01993 44.93518 44.93518 0 0 1-6.18627-7.89229c-2.89621-4.5445-5.50089-9.25308-8.22354-13.89351a24.56929 24.56929 0 0 1-2.434-4.76912 1.07809 1.07809 0 0 1 1.07913-.27448 7.12608 7.12608 0 0 1 3.87089 2.45042 27.2329 27.2329 0 0 0 5.67451 5.5593 30.10438 30.10438 0 0 0 8.98945 3.89584c1.971.54411 4.01991.55367 5.62781-2.14936C119.60383 398.07217 119.84339 397.76071 120.06435 397.4382zM431.81709 367.30011a1.17419 1.17419 0 0 1 .501 1.00231 9.72067 9.72067 0 0 1-.27773 3.475 4.00462 4.00462 0 0 0-.1681 1.14805 35.53286 35.53286 0 0 1-4.15031 13.98072 7.23673 7.23673 0 0 1-2.01052 2.24957 4.11088 4.11088 0 0 1-3.7873.62509 5.908 5.908 0 0 1-3.14923-1.92749 32.3162 32.3162 0 0 1-4.53307-7.32375.71658.71658 0 0 1 .26148-.99786c2.21816.242 3.64308-1.13224 4.9485-2.571a53.80892 53.80892 0 0 0 4.81174-5.97613c.30319-.44864.676-.85072 1.02241-1.2696a2.69472 2.69472 0 0 1 2.24274-1.02639 7.30508 7.30508 0 0 1 1.16272.03479A2.74833 2.74833 0 0 0 431.81709 367.30011zM231.56984 118.19542l.38931-.59129c1.37178-.24209 1.997.82257 2.556 1.67731a79.21983 79.21983 0 0 0 7.43446 9.36688 44.30045 44.30045 0 0 0 17.449 11.97016c6.596 2.5051 12.00761.48448 16.95-5.57259a42.99469 42.99469 0 0 1 4.57766-5.341c.65552-.57855 1.264-1.53749 2.38965-.78612a2.29033 2.29033 0 0 0-.332 2.37885 2.33806 2.33806 0 0 1 .21816 1.34642 2.46477 2.46477 0 0 1-.345-.31115c-.21162-.27571-.46319-.46529-.72984-.12915a88.32629 88.32629 0 0 1-6.144 7.0324 29.40409 29.40409 0 0 1-3.904 3.34022 9.002 9.002 0 0 1-4.98186 1.82882 6.86511 6.86511 0 0 0-1.84525.25946 3.76023 3.76023 0 0 1-1.61024.18036c-4.02613-.61336-7.93262-1.57641-11.40155-3.8726a68.4023 68.4023 0 0 1-6.62474-5.16229c-2.26424-1.93474-4.36012-4.0192-6.4529-6.11485a51.96059 51.96059 0 0 1-5.47686-6.66793c-.7933-1.11413-1.01428-2.40735-1.66624-3.53556Q231.79495 118.84373 231.56984 118.19542z" class="colore8b385 svgShape"></path>
  <path fill="#f6cf93" d="M208.6165 305.72143a12.124 12.124 0 0 0 4.53038.9325 27.93626 27.93626 0 0 1 3.95336.36 27.43936 27.43936 0 0 0 4.45293.12694 10.366 10.366 0 0 1 3.25467.3151 6.04187 6.04187 0 0 0 1.86184.13692c2.11558.01694 4.23167-.01047 6.34687.0228a17.81466 17.81466 0 0 1 5.36071.3887 5.56219 5.56219 0 0 0 1.63656.0618c2.50747.009 5.0151-.003 7.52236.02233a16.4122 16.4122 0 0 1 4.89247.37329 6.43725 6.43725 0 0 0 1.87011.07156q10.931.00543 21.862.00064a11.50643 11.50643 0 0 0 3.25381-.31476 11.20307 11.20307 0 0 1 2.56806-.139c2.10134-.08893 4.22561.22889 6.298-.41753a5.41633 5.41633 0 0 1 1.40382-.05388c1.71338-.05115 3.44634.1712 5.12174-.41419a2.8226 2.8226 0 0 1 .9344-.04946 57.29947 57.29947 0 0 0 14.07226-2.04065c.98414-.23611 1.95439-.53 2.931-.79736.74112.61258.44161 1.43442.40727 2.18145-.18963 4.1248-.20989 8.25975-.298 12.38153a49.651 49.651 0 0 0 2.44222 16.58386c.28355.864.78337 1.73379.34659 2.70427a4.92015 4.92015 0 0 1-2.0265 1.10071c-4.67474 1.24428-9.26 2.81895-14.0247 3.73354-1.99412.38276-4.0174.5616-6.0108.89774-3.09829.5225-6.25117.16867-9.33484.76762a11.159 11.159 0 0 1-2.108.07968q-12.32137.00035-24.64273-.01019c-3.87379-.54411-7.80809-.19672-11.67961-.79253a12.57645 12.57645 0 0 0-1.63978-.07673c-2.97172-.06344-5.90233-.552-8.85307-.82816-2.72252-.2547-5.41666-.702-8.12753-1.002a48.90449 48.90449 0 0 1-10.01868-2.29177c-1.33484-.442-2.68237-.846-4.01316-1.2995a3.87431 3.87431 0 0 0-2.30314-.1346c-.86266-.78522-.77571-1.8506-.75358-2.84594a152.24617 152.24617 0 0 0-1.8768-27.32787C208.10035 307.31812 207.804 306.4112 208.6165 305.72143zM298.77749 424.26488q-.41431 6.41595-.829 12.832c-.00506.07784-.02354.15518-.02449.23286-.07394 6.08507-.92317 12.14568-.58433 18.24338.28973 5.214 1.33383 10.20214 4.41673 14.57194a6.00964 6.00964 0 0 1 .33683.61367c-.18765 1.38045-1.32186 1.06681-2.15295 1.12032-4.16007.26736-8.06917-.95205-11.91207-2.28451-10.94037-3.79344-21.75486-7.94-32.83554-11.34147-8.68077-2.66468-16.9754-6.42322-25.5441-9.419a3.27308 3.27308 0 0 1-1.7881-1.05246c-.28494-.36049-.56987-.721-.92989-1.17642a3.51935 3.51935 0 0 1 2.42241-.69685c2.88232-.18406 5.76959-.319 8.64443-.58589a72.23514 72.23514 0 0 0 15.99628-3.36682 69.60774 69.60774 0 0 0 9.31821-3.81072 112.92536 112.92536 0 0 1 11.03851-4.55745c4.60733-1.723 9.25916-3.33243 13.828-5.15107a86.86037 86.86037 0 0 0 9.65332-4.16717A.6034.6034 0 0 1 298.77749 424.26488z" class="colorf6c193 svgShape"></path>
  <path fill="#d8a353" d="M227.86048,447.78157a5.28521,5.28521,0,0,1,2.47832.60936c4.10519,1.48678,8.19244,3.0235,12.27963,4.5596,1.678.63066,3.34555,1.29,5.00855,1.9595,4.20155,1.6915,8.53087,2.99083,12.85069,4.33759,3.72059,1.15982,7.45178,2.31217,11.07066,3.79264,2.09086.85542,4.25107,1.54212,6.38384,2.294,3.01607,1.06319,6.06432,2.04246,9.04419,3.19843,2.18791.84877,4.447,1.4149,6.68852,2.06164a23.07128,23.07128,0,0,0,7.18756.67917,1.41477,1.41477,0,0,0,1.24063-.51463,6.39746,6.39746,0,0,1,1.8307,1.93877,2.85721,2.85721,0,0,1-.86723.347,29.84446,29.84446,0,0,1-7.24342-.15794c-.98874-.20025-2.029-.16483-3.006-.40119a66.12614,66.12614,0,0,1-8.46028-2.75384c-2.90963-1.135-5.85448-2.17968-8.783-3.26641-4.39408-1.63065-8.767-3.32107-13.18661-4.87921-4.34967-1.53351-8.73588-2.96621-13.12532-4.3834-4.09344-1.32166-8.104-2.85064-12.09249-4.45873-2.46053-.99206-5.02617-1.72463-7.55123-2.55348a4.09991,4.09991,0,0,0-.93245-.08473l-.50763-.9315c-.34561-.41583-.77284-.79985-.55838-1.43379Q227.7344,447.76528,227.86048,447.78157Z" class="colore8b385 svgShape"></path>
  <path fill="#b073cd" d="M298.77749,424.26488q-.47292.00207-.94577.00422a2.142,2.142,0,0,1,1.38206-1.18365c2.29321-.99333,4.58228-1.99739,6.89245-2.95a95.958,95.958,0,0,1,14.82853-4.23872c3.24477-.76162,6.60172-1.0411,9.9047-1.56007,2.68633-.42211,5.36539-.89021,8.0518-1.31158a13.06692,13.06692,0,0,1,1.64067-.06867,6.24987,6.24987,0,0,0,1.63728-.05709c1.99588-.628,4.0375-.34725,6.06076-.415a11.08917,11.08917,0,0,0,3.716-.36582,4.09914,4.09914,0,0,1,1.39764-.09373q3.99531-.01089,7.99061-.00361a3.26868,3.26868,0,0,1,.70354.01564c3.71546.83522,7.48441.29395,11.22607.43862,1.32994.05144,2.66328.011,3.995.02a1.92906,1.92906,0,0,1,1.34362.28568,1.05734,1.05734,0,0,1,.33127.56283.4269.4269,0,0,1-.4092.47378,13.01119,13.01119,0,0,1-4.20511-.08718,11.07429,11.07429,0,0,0-2.78284-.29819q-10.69333-.00348-21.38668-.00141a9.19812,9.19812,0,0,0-2.78412.3025,8.16353,8.16353,0,0,1-2.09416.15679c-1.63438.05627-3.2882-.162-4.88354.41621a2.26738,2.26738,0,0,1-.93305.05138c-1.74292-.1493-3.38941.47447-5.09829.625-1.85326.16325-3.69042.516-5.53188.8035-.84484.13191-1.68143.31608-2.52483.45809a108.50759,108.50759,0,0,0-17.46785,4.24828,86.16538,86.16538,0,0,0-8.0421,3.22275A4.16352,4.16352,0,0,1,298.77749,424.26488Z" class="color7388cd svgShape"></path>
  <path fill="#b073cd" d="M227.60979 447.7404a1.94067 1.94067 0 0 1 .55861 1.43373 4.35828 4.35828 0 0 1-1.59465-.32248c-3.90658-1.36225-7.82262-2.69712-11.735-4.04278a64.261 64.261 0 0 0-10.46835-2.30265c-1.76373-.29354-3.59331-.131-5.30256-.768a2.16418 2.16418 0 0 0-.697-.07882c-2.57547-.0542-5.09407-.68233-7.63878-.84842-2.02553-.13217-4.054-.3629-6.02942-.66431-2.62652-.40073-5.30538-.06625-7.89193-.76856a7.3544 7.3544 0 0 0-1.87033-.0794c-3.05343-.00764-6.10693-.015-9.16033-.00345a10.42309 10.42309 0 0 0-3.94418.37915 2.94245 2.94245 0 0 1-.93021.08221 33.91841 33.91841 0 0 0-9.17347 1.57617 8.6668 8.6668 0 0 1-1.35929.32437c-.42823.067-.883.43007-1.29589-.05184-.24972-.29154.16743-.70409 1.03436-.9532 2.02218-.58112 4.03173-1.21632 6.07573-1.70758 1.35545-.3257 2.82325.03869 4.15682-.55787 2.66382.17149 5.25385-.7166 7.92845-.52158 1.47976.10794 2.97377.01717 4.46134.02239a6.33808 6.33808 0 0 1 2.54645.29332 1.50588 1.50588 0 0 0 .68435.137c2.66921-.22907 5.28027.40917 7.92727.52617a34.8262 34.8262 0 0 1 5.32951.58611c1.00926.20347 2.00335.2436 3.00786.35038 2.08335.22167 4.15529.54845 6.23544.80347 1.46614.17976 2.94359.40171 4.39865.51222 6.22185.4725 12.06028 2.29938 17.83628 4.5011A33.89866 33.89866 0 0 0 227.60979 447.7404zM195.25707 400.32188a43.8041 43.8041 0 0 1 8.11589.78163 62.90716 62.90716 0 0 1 13.09114 3.48431 64.89619 64.89619 0 0 1 10.95262 5.3312c3.025 1.7999 5.92647 3.769 8.77168 5.83488a66.34694 66.34694 0 0 1 8.44194 7.77224 6.11659 6.11659 0 0 1 .73909 1.18752.4931.4931 0 0 1-.02248.63991c-.29317.27652-.57727.09688-.81142-.11833-.40343-.37085-.79273-.75742-1.18072-1.14466-1.22-1.21758-2.45358-2.42224-3.65072-3.662a39.15222 39.15222 0 0 0-5.95664-4.90417 98.39658 98.39658 0 0 0-11.39357-6.93519 64.70924 64.70924 0 0 0-15.15742-5.48883 50.44444 50.44444 0 0 0-10.388-1.46754c-1.54642-.02245-3.066-.54532-4.6377-.521-.106.00166-.27578-.16549-.31014-.28462a.37928.37928 0 0 1 .34535-.49146C193.22216 400.3044 194.23989 400.32188 195.25707 400.32188z" class="color7387cd svgShape"></path>
  <path fill="#b073cd" d="M208.08751 395.56356a17.73411 17.73411 0 0 1 6.77889 1.59195c5.816 2.16466 11.01213 5.48366 16.0687 9.00845a23.00069 23.00069 0 0 1 3.14261 3.13189.37638.37638 0 0 1-.0852.60047.48519.48519 0 0 1-.42548.01955c-.81968-.59068-1.65436-1.16743-2.42312-1.82068a48.15313 48.15313 0 0 0-7.87013-5.42238c-1.774-.984-3.53664-1.98694-5.36858-2.85322-1.47713-.69852-2.99373-1.32083-4.51955-1.9074a22.6797 22.6797 0 0 0-6.34563-1.43936c-.27885-.02244-.68457-.04354-.61442-.49755.06049-.39146.42846-.38354.72479-.40641C207.46107 395.54495 207.775 395.56356 208.08751 395.56356zM327.23062 393.38916c-.06025.09166-.14037.36876-.30965.44325a10.927 10.927 0 0 1-1.96062.72062 38.43671 38.43671 0 0 0-8.08126 3.00023c-1.83078.87422-3.62543 1.82383-5.44846 2.71471a62.639 62.639 0 0 0-6.0942 3.45441c-.85135.54127-1.79867.93155-2.70215 1.3909a.49147.49147 0 0 1-.63347-.10524c-.2599-.29641-.12763-.57222.12312-.79641a4.1928 4.1928 0 0 1 .73119-.57658c3.06851-1.69219 6.02952-3.5772 9.19727-5.09217 2.53089-1.2104 5.00141-2.54085 7.6195-3.57485 2.25233-.88959 4.62352-1.366 6.90347-2.14939A.51915.51915 0 0 1 327.23062 393.38916zM286.64036 414.64434c-.294.01579-.41916-.16658-.47858-.40845a1.02674 1.02674 0 0 1 .24821-.8695 36.894 36.894 0 0 1 7.40082-8.08186c1.42822-1.07824 2.63007-2.437 4.10488-3.4784 1.91058-1.34913 3.77854-2.75858 5.67033-4.13452a.68713.68713 0 0 1 .43216-.14861c.21535.0265.51191.08121.60313.2293a.64156.64156 0 0 1-.09352.61846c-.71158.60552-1.46309 1.16436-2.20376 1.73554-2.5291 1.95061-5.1753 3.76956-7.55382 5.889a33.572 33.572 0 0 0-5.65592 5.9306 31.77558 31.77558 0 0 1-2.072 2.53215C286.95448 414.56175 286.77278 414.58589 286.64036 414.64434z" class="color7388cd svgShape"></path>
  <path fill="#ad59d4" d="M367.59876 409.44627c.16385.05339-.0484-.07957.01073-.34728a1.289 1.289 0 0 1 .31083-.59951c1.13918-1.16327 2.27842-2.32748 3.453-3.45458a6.85543 6.85543 0 0 1 2.43684-1.31822.42618.42618 0 0 1 .54443.29208.79451.79451 0 0 1-.08907.6416c-.72071.70194-1.67035 1.07781-2.46228 1.714a13.71073 13.71073 0 0 0-3.01926 2.8478C368.60288 409.49005 368.35107 409.6653 367.59876 409.44627zM376.11944 407.8668c-.091.11919-.15871.27578-.27776.34941a2.48976 2.48976 0 0 1-.83731.41224 8.85826 8.85826 0 0 0-4.39118 2.07122 1.46254 1.46254 0 0 1-.61341.30911.78266.78266 0 0 1-.8585-.222.5901.5901 0 0 1 .20332-.81684 14.65438 14.65438 0 0 1 4.988-2.53692 2.05211 2.05211 0 0 1 1.59465.05107C376.03037 407.54108 376.05744 407.73553 376.11944 407.8668z" class="color7488ce svgShape"></path>
  <path fill="#b274cf" d="M158.281,438.10818a14.14773,14.14773,0,0,0-4.93629-2.89275,1.61366,1.61366,0,0,1-.54038-.41534.22176.22176,0,0,1-.03587-.20493c.06123-.12794.13132-.30626.24033-.345a1.28623,1.28623,0,0,1,.67682-.08494,8.126,8.126,0,0,1,4.666,2.829A.75334.75334,0,0,1,158.281,438.10818Z" class="color7489cf svgShape"></path>
  <path fill="#d8a353" d="M304.46748 473.13567q-.26558-.21633-.53111-.43248Q304.202 472.91952 304.46748 473.13567zM324.19888 247.39074a23.03056 23.03056 0 0 0-.46282-4.64351 12.102 12.102 0 0 0-.8372-2.17416 2.52814 2.52814 0 0 0-3.00215-1.6413c-1.27783-.9104-1.71866-2.3701-2.20918-3.70965a19.97829 19.97829 0 0 1-1.55283-6.25027c-.02279-.76357-.53832-1.45374-.43219-2.25554a5.79248 5.79248 0 0 0 2.55712-1.0911 23.64052 23.64052 0 0 1 4.46387-1.95853 3.8148 3.8148 0 0 1 5.18764 2.85991c.33956 1.59557.84449 3.17521.1257 4.79995a1.58973 1.58973 0 0 0-.09246.69034c.13127 3.00467-.86576 5.81644-1.49518 8.688-.39829 1.81712-.92392 3.60608-1.34159 5.41942A1.68587 1.68587 0 0 1 324.19888 247.39074zM193.80957 237.09846c-.5988.0095-.79024.39955-.85127.91146-.84825-.86134-.56224-1.93467-.36973-2.8755a20.23394 20.23394 0 0 1 3.78221-8.17779c.55838-.73992 1.231-1.21014 2.20445-.725A74.62368 74.62368 0 0 1 195.72809 238.08q-.6918-.30033-1.38327-.60129A2.11723 2.11723 0 0 0 193.80957 237.09846z" class="colore8b385 svgShape"></path>
  <path fill="#f6cf93" d="M283.316,128.91874a1.41542,1.41542,0,0,0-1.09245.33088,29.512,29.512,0,0,0-3.22533,3.39972,38.73632,38.73632,0,0,1-5.596,6.29459,12.11826,12.11826,0,0,1-8.10942,3.13943,19.57934,19.57934,0,0,1-10.85726-3.076c-2.9834-1.86314-5.942-3.74836-8.75665-5.85763a22.6912,22.6912,0,0,1-4.30618-4.28315,15.0218,15.0218,0,0,0-1.20917-1.42689,39.81956,39.81956,0,0,1-4.96411-6.20343c-.90311-1.35954-1.71634-2.81828-3.2402-3.63217a36.77941,36.77941,0,0,1-3.64033-7.59078,94.018,94.018,0,0,1-5.15849-18.97467c-.3124-1.76614-.43853-3.56755-.59945-5.35731a8.08445,8.08445,0,0,1,.46109-3.23014,19.28157,19.28157,0,0,1,2.96475-5.57025,9.93731,9.93731,0,0,1,4.98068-3.75129A19.99594,19.99594,0,0,0,234.19,71.72751a15.22382,15.22382,0,0,0,6.27739-6.47444c.70765-1.30637,1.42311-2.61139,2.206-3.873a13.1279,13.1279,0,0,1,1.46818-1.81922,2.66627,2.66627,0,0,1,2.80089-.73089,6.34973,6.34973,0,0,1,1.0967.40881,3.30069,3.30069,0,0,0,3.6984-.63815,10.74183,10.74183,0,0,0,2.34036-2.61461c.53192-.86651,1.05083-1.742,1.54537-2.63024a45.16413,45.16413,0,0,1,5.87311-8.18615,31.07756,31.07756,0,0,1,9.3801-6.94754,11.38044,11.38044,0,0,1,8.02735-.51932,3.09506,3.09506,0,0,1,1.80311,1.41448,41.244,41.244,0,0,1,4.89238,9.58942,138.17423,138.17423,0,0,1,5.17579,19.71379c.75444,3.99669,1.16511,8.0322,1.53228,12.08574a109.67748,109.67748,0,0,1,.1997,14.30745c-.125,3.12508-.1482,6.25967-.39441,9.377a71.97663,71.97663,0,0,1-1.27723,9.0449c.582,2.20785-.35026,4.03866-1.451,5.82754-.3517.69023-.72243,1.37151-1.05157,2.07236a36.38879,36.38879,0,0,1-3.61455,6.24629A5.46593,5.46593,0,0,1,283.316,128.91874Z" class="colorf6c193 svgShape"></path>
  <path fill="#e3c598" d="M289.38444,119.06309c.0558-1.72911.93856-3.25305,1.22418-4.92578.052-.30428.1497-.60071.22657-.90127a11.83545,11.83545,0,0,0,3.152-2.35814c1.341-1.34676,2.86827-1.02239,3.42185,1.04609a2.716,2.716,0,0,1-.54451,2.60636,7.86008,7.86008,0,0,1-1.525,1.42493A25.6162,25.6162,0,0,1,289.38444,119.06309Z" class="colore398a1 svgShape"></path>
  <path fill="#f6cf93" d="M193.80957,237.09846q.26781.19041.53546.38049Q194.07709,237.28842,193.80957,237.09846Z" class="colorf6c193 svgShape"></path>
</svg>
