<svg id="SvgjsSvg1081" width="288" height="288" xmlns="http://www.w3.org/2000/svg" version="1.1" xmlns:xlink="http://www.w3.org/1999/xlink" xmlns:svgjs="http://svgjs.com/svgjs"><defs id="SvgjsDefs1082"></defs><g id="SvgjsG1083"><svg xmlns="http://www.w3.org/2000/svg" viewBox="0 0 64 64" width="288" height="288"><path fill="#2e2e2e" d="M51.83 8H12.17a10 10 0 0 0-10 10v28a10 10 0 0 0 10 10h39.66a10 10 0 0 0 10-10V18a10 10 0 0 0-10-10Zm-9.12 26.64-16.41 8.8a3 3 0 0 1-1.42.36 3 3 0 0 1-3-3V23.2a3 3 0 0 1 4.42-2.64l16.41 8.8a3 3 0 0 1 0 5.28Zm-16.83-9.77L39.17 32l-13.29 7.13Z" class="color222 svgShape"></path></svg></g></svg>